<svg xmlns="http://www.w3.org/2000/svg" width="48" height="48" viewBox="0 0 48 48" class="is-bidi"><path fill="#E6E6E6" d="M37 1H5a2 2 0 0 0-2 2v36a2 2 0 0 0 2 2h32a2 2 0 0 0 2-2V3a2 2 0 0 0-2-2z"/><path fill="#EFD358" d="M44 29.25V46l-6-3-6 3V29.25z"/><path fill="#B3B3B3" d="M30 14H12a1 1 0 1 1 0-2h18a1 1 0 1 1 0 2z"/><path fill="#B3B3B3" d="M24 22H12a1 1 0 1 1 0-2h12a1 1 0 1 1 0 2z"/><path fill="#B3B3B3" d="M24 30H12a1 1 0 1 1 0-2h12a1 1 0 1 1 0 2z"/><path fill="#E86C60" d="M38 15c-4.963 0-9 4.038-9 9s4.037 9 9 9 9-4.038 9-9-4.037-9-9-9z"/><circle fill="#C94949" cx="38" cy="24" r="4"/></svg>