<svg xmlns="http://www.w3.org/2000/svg" width="48" height="48" viewBox="0 0 48 48"><path fill="none" stroke="#444" stroke-width="2" stroke-linecap="square" stroke-miterlimit="10" d="M22 46H9a4 4 0 0 1-4-4V6a4 4 0 0 1 4-4h24a4 4 0 0 1 4 4v15"/><path fill="none" stroke="#444" stroke-width="2" stroke-linecap="square" stroke-miterlimit="10" d="M5 10h32"/><path fill="none" stroke="#444" stroke-width="2" stroke-linecap="square" stroke-miterlimit="10" d="M5 36h17"/><path data-cap="butt" data-color="color-2" fill="none" stroke="#444" stroke-width="2" stroke-miterlimit="10" d="M28.223 34c.91-4.008 4.494-7 8.777-7 3.534 0 6.527 2.037 8 5"/><path data-color="color-2" fill="none" stroke="#444" stroke-width="2" stroke-linecap="square" stroke-miterlimit="10" d="M45 26v6h-6"/><path data-cap="butt" data-color="color-2" fill="none" stroke="#444" stroke-width="2" stroke-miterlimit="10" d="M45.777 38c-.91 4.008-4.494 7-8.777 7-3.534 0-6.527-2.037-8-5"/><path data-color="color-2" fill="none" stroke="#444" stroke-width="2" stroke-linecap="square" stroke-miterlimit="10" d="M29 46v-6h6"/></svg>