<svg xmlns="http://www.w3.org/2000/svg" width="48" height="48" viewBox="0 0 48 48"><path data-color="color-2" fill="none" stroke="#444" stroke-width="2" stroke-linecap="square" stroke-miterlimit="10" d="M30 36h16v10H30z"/><path data-color="color-2" fill="none" stroke="#444" stroke-width="2" stroke-linecap="square" stroke-miterlimit="10" d="M34 36v-6c0-2.2 1.8-4 4-4s4 1.8 4 4v6"/><path fill="none" stroke="#444" stroke-width="2" stroke-linecap="square" stroke-miterlimit="10" d="M22 26c-5.523 0-10-6.477-10-12v-2c0-5.523 4.477-10 10-10s10 4.477 10 10v2c0 5.523-4.477 12-10 12z"/><path fill="none" stroke="#444" stroke-width="2" stroke-linecap="square" stroke-miterlimit="10" d="M24.001 31.037A54.547 54.547 0 0 0 22 31c-6.288 0-11.477 1.098-14.993 2.144A6.998 6.998 0 0 0 2 39.856V44h21"/></svg>