<svg xmlns="http://www.w3.org/2000/svg" width="48" height="48" viewBox="0 0 48 48" class="is-bidi"><path data-color="color-2" fill="none" stroke="#444" stroke-width="2" stroke-linecap="square" stroke-miterlimit="10" d="M8 20h6"/><path data-color="color-2" fill="none" stroke="#444" stroke-width="2" stroke-linecap="square" stroke-miterlimit="10" d="M2 27h6"/><circle fill="none" stroke="#444" stroke-width="2" stroke-linecap="square" stroke-miterlimit="10" cx="37" cy="7" r="4"/><path data-cap="butt" fill="none" stroke="#444" stroke-width="2" stroke-miterlimit="10" d="M29.94 14.06L22 22a4 4 0 0 0 .61 6.157l6.125 4.083a2 2 0 0 1 .452 2.914L24 42"/><path data-cap="butt" fill="none" stroke="#444" stroke-width="2" stroke-miterlimit="10" d="M15 13l3.468-3.468a4 4 0 0 1 5.328-.295l13.408 10.526a4 4 0 0 0 5.328-.295L46 16"/><path data-cap="butt" fill="none" stroke="#444" stroke-width="2" stroke-miterlimit="10" d="M17 30l-2.259 3.518a4 4 0 0 1-2.313 2.006L2 39"/></svg>