<svg xmlns="http://www.w3.org/2000/svg" width="48" height="48" viewBox="0 0 48 48"><path fill="none" d="M30 14.792V15a1 1 0 0 1-1 1H19a1 1 0 0 1-1-1v-.208A11.078 11.078 0 0 0 14.792 18H15a1 1 0 0 1 1 1v10a1 1 0 0 1-1 1h-.208A11.078 11.078 0 0 0 18 33.208V33a1 1 0 0 1 1-1h10a1 1 0 0 1 1 1v.208A11.078 11.078 0 0 0 33.208 30H33a1 1 0 0 1-1-1V19a1 1 0 0 1 1-1h.208A11.078 11.078 0 0 0 30 14.792z"/><path fill="#EA9860" d="M18 14.792V3.882A21.029 21.029 0 0 0 3.881 18h10.911A11.078 11.078 0 0 1 18 14.792z"/><path fill="#EA9860" d="M33.208 18h10.91A21.029 21.029 0 0 0 30 3.881v10.911A11.078 11.078 0 0 1 33.208 18z"/><path fill="#EA9860" d="M14.792 30H3.882A21.029 21.029 0 0 0 18 44.119V33.208A11.078 11.078 0 0 1 14.792 30z"/><path fill="#EA9860" d="M30 33.208v10.91A21.029 21.029 0 0 0 44.119 30H33.208A11.078 11.078 0 0 1 30 33.208z"/><path fill="#E6E6E6" d="M14.792 18H2a1 1 0 0 0-1 1v10a1 1 0 0 0 1 1h12.792C13.662 28.273 13 26.214 13 24s.663-4.273 1.792-6z"/><path fill="#E6E6E6" d="M24 35c-2.214 0-4.273-.663-6-1.792V46a1 1 0 0 0 1 1h10a1 1 0 0 0 1-1V33.208A10.928 10.928 0 0 1 24 35z"/><path fill="#E6E6E6" d="M46 18H33.208C34.338 19.727 35 21.786 35 24s-.663 4.273-1.792 6H46a1 1 0 0 0 1-1V19a1 1 0 0 0-1-1z"/><path fill="#E6E6E6" d="M29 1H19a1 1 0 0 0-1 1v12.792C19.727 13.662 21.786 13 24 13s4.273.663 6 1.792V2a1 1 0 0 0-1-1z"/></svg>