<svg xmlns="http://www.w3.org/2000/svg" width="48" height="48" viewBox="0 0 48 48"><path data-cap="butt" data-color="color-2" fill="none" stroke="#444" stroke-width="2" stroke-miterlimit="10" d="M2 13L24 3l22 10"/><path fill="none" stroke="#444" stroke-width="2" stroke-linecap="square" stroke-miterlimit="10" d="M20 40.672c0-1.208-.529-2.357-1.476-3.108C17.078 36.416 14.57 35 11 35s-6.078 1.416-7.524 2.564C2.529 38.315 2 39.464 2 40.672V43h18v-2.328z"/><path fill="none" stroke="#444" stroke-width="2" stroke-linecap="square" stroke-miterlimit="10" d="M16 24c0 2.761-2.239 6-5 6s-5-3.239-5-6a5 5 0 0 1 10 0z"/><path fill="none" stroke="#444" stroke-width="2" stroke-linecap="square" stroke-miterlimit="10" d="M46 40.672c0-1.208-.529-2.357-1.476-3.108C43.078 36.416 40.57 35 37 35s-6.078 1.416-7.524 2.564c-.947.751-1.476 1.9-1.476 3.108V43h18v-2.328z"/><path fill="none" stroke="#444" stroke-width="2" stroke-linecap="square" stroke-miterlimit="10" d="M42 24c0 2.761-2.239 6-5 6s-5-3.239-5-6a5 5 0 0 1 10 0z"/></svg>