<svg xmlns="http://www.w3.org/2000/svg" width="24" height="24" viewBox="0 0 24 24"><path fill="none" stroke="#444" stroke-width="2" stroke-linecap="square" stroke-miterlimit="10" d="M21 13h-6c0-3.8-1-4.6-1-7 0-3 1.8-5 4-5s4 2 4 5-1 7-1 7z"/><path data-color="color-2" fill="none" stroke="#444" stroke-width="2" stroke-linecap="square" stroke-miterlimit="10" d="M18 21c-2.1 0-3.6-1.9-3.2-3.9L15 16h6l.2 1.1c.4 2-1.1 3.9-3.2 3.9z"/><path fill="none" stroke="#444" stroke-width="2" stroke-linecap="square" stroke-miterlimit="10" d="M3 15h6c0-3.8 1-4.6 1-7 0-3-1.8-5-4-5S2 5 2 8s1 7 1 7z"/><path data-color="color-2" fill="none" stroke="#444" stroke-width="2" stroke-linecap="square" stroke-miterlimit="10" d="M6 23c2.1 0 3.6-1.9 3.2-3.9L9 18H3l-.2 1.1C2.4 21.1 3.9 23 6 23z"/></svg>